<svg width="62" height="62" viewBox="0 0 62 62" fill="none" xmlns="http://www.w3.org/2000/svg">
<path d="M31 61C47.5685 61 61 47.5685 61 31C61 14.4315 47.5685 1 31 1C14.4315 1 1 14.4315 1 31C1 47.5685 14.4315 61 31 61Z" fill="#1A823B"/>
<mask id="mask0_5417_7870" style="mask-type:luminance" maskUnits="userSpaceOnUse" x="1" y="1" width="60" height="60">
<path d="M31 61C47.5685 61 61 47.5685 61 31C61 14.4315 47.5685 1 31 1C14.4315 1 1 14.4315 1 31C1 47.5685 14.4315 61 31 61Z" fill="white"/>
</mask>
<g mask="url(#mask0_5417_7870)">
<path d="M19.8291 22.4494H24.6509V36.5003C23.5164 35.3876 21.3128 32.9003 20.2655 29.0167C19.5019 26.2676 19.6328 23.8894 19.8291 22.4276V22.4494Z" fill="#2B323E" stroke="black" stroke-linecap="round" stroke-linejoin="round"/>
<path d="M24.6693 22.4485V26.8558C24.1893 26.4849 23.5566 26.3103 22.8584 26.4631C22.0293 26.6376 21.3529 27.314 21.2002 28.1431C20.9166 29.5613 21.9856 30.7831 23.3602 30.7831C23.862 30.7831 24.3202 30.6085 24.6693 30.3249V46.0122H35.6438V38.594C39.3311 38.594 42.3202 35.6049 42.3202 31.9176V22.4485H24.6693Z" fill="#F9D3D2" stroke="black" stroke-linecap="round" stroke-linejoin="round"/>
<path d="M41.7811 20.6798C41.672 14.7234 36.8066 9.92342 30.8066 9.92342C24.8066 9.92342 19.9629 14.7234 19.832 20.6798V22.4252H41.7811V20.6798Z" fill="#1A823B" stroke="black" stroke-linecap="round" stroke-linejoin="round"/>
<path d="M24.6699 22.4467H42.3208C44.7426 20.854 44.9826 19.894 44.8736 19.3704C44.5245 17.6249 39.7463 16.9922 36.539 17.1667C35.7972 17.2104 33.5499 17.3849 30.8226 18.4758C27.899 19.654 25.8699 21.3122 24.6699 22.4249V22.4467Z" fill="#1A823B" stroke="black" stroke-linecap="round" stroke-linejoin="round"/>
<path d="M32.3526 29.4512C32.9551 29.4512 33.4435 28.7674 33.4435 27.9239C33.4435 27.0804 32.9551 26.3966 32.3526 26.3966C31.7501 26.3966 31.2617 27.0804 31.2617 27.9239C31.2617 28.7674 31.7501 29.4512 32.3526 29.4512Z" fill="black" stroke="black" stroke-linecap="round" stroke-linejoin="round"/>
<path d="M38.0479 29.4512C38.6504 29.4512 39.1388 28.7674 39.1388 27.9239C39.1388 27.0804 38.6504 26.3966 38.0479 26.3966C37.4454 26.3966 36.957 27.0804 36.957 27.9239C36.957 28.7674 37.4454 29.4512 38.0479 29.4512Z" fill="black" stroke="black" stroke-linecap="round" stroke-linejoin="round"/>
<path d="M30.3633 25.5C30.756 25.0418 31.4324 24.78 32.1087 24.8455C32.9378 24.9109 33.3742 25.4346 33.4178 25.5" stroke="black" stroke-linecap="round" stroke-linejoin="round"/>
<path d="M36.5156 25.5C36.9084 25.0418 37.5847 24.78 38.2611 24.8455C39.0902 24.9109 39.5265 25.4346 39.5702 25.5" stroke="black" stroke-linecap="round" stroke-linejoin="round"/>
<path d="M35.4063 32.4407C35.5154 32.4844 35.6463 32.528 35.799 32.528C36.4754 32.5716 37.0427 32.048 37.0863 31.3934C37.1299 30.7389 36.6063 30.1498 35.9518 30.1062C35.7118 30.1062 35.4718 30.1498 35.2754 30.2589" stroke="black" stroke-linecap="round" stroke-linejoin="round"/>
<path d="M32.1367 32.5294C32.3113 32.8349 33.0749 34.2094 34.7767 34.7331C35.9767 35.104 37.0022 34.864 37.4167 34.7331" stroke="black" stroke-linecap="round" stroke-linejoin="round"/>
<path d="M28.8398 32.0913C29.6833 32.0913 30.367 31.6029 30.367 31.0004C30.367 30.3979 29.6833 29.9095 28.8398 29.9095C27.9963 29.9095 27.3125 30.3979 27.3125 31.0004C27.3125 31.6029 27.9963 32.0913 28.8398 32.0913Z" fill="#FF0000" stroke="black" stroke-linecap="round" stroke-linejoin="round"/>
<path d="M41.0567 44.6373H38.8771V40.5191C38.8771 39.5129 37.8963 38.8343 37.0245 39.2555L30.8564 42.3442L23.9254 39.1151C23.0754 38.7173 22.1164 39.3959 22.1164 40.4021V44.6373H20.9394C14.902 44.6373 9.99805 49.9022 9.99805 56.3838V61.9996H51.998V56.3838C51.998 49.9022 47.0941 44.6373 41.0567 44.6373Z" fill="white" stroke="black" stroke-linecap="round" stroke-linejoin="round"/>
<path d="M30.9375 42.454V48.2794" stroke="black" stroke-linecap="round" stroke-linejoin="round"/>
</g>
<path d="M31 61C47.5685 61 61 47.5685 61 31C61 14.4315 47.5685 1 31 1C14.4315 1 1 14.4315 1 31C1 47.5685 14.4315 61 31 61Z" stroke="#1A823B" stroke-linecap="round" stroke-linejoin="round"/>
</svg>
