<svg width="9" height="6" viewBox="0 0 9 6" fill="none" xmlns="http://www.w3.org/2000/svg">
<g clip-path="url(#clip0_5401_5852)">
<path d="M5.35429 5.77454C5.35429 5.77454 5.29321 5.77454 5.26266 5.75307C5.1914 5.71014 5.14049 5.635 5.14049 5.54913V4.71192H0.426692C0.30452 4.71192 0.212891 4.61532 0.212891 4.48652V1.51336C0.212891 1.38455 0.30452 1.28795 0.426692 1.28795H5.14049V0.450744C5.14049 0.364877 5.1914 0.289743 5.26266 0.246809C5.29321 0.236075 5.32375 0.225342 5.35429 0.225342C5.39502 0.225342 5.44592 0.236075 5.48665 0.268276L8.70384 2.82284C8.75474 2.86577 8.78529 2.93017 8.78529 3.00531C8.78529 3.08044 8.75474 3.14484 8.70384 3.18777L5.48665 5.74234C5.48665 5.74234 5.4052 5.78527 5.35429 5.78527V5.77454Z" fill="black"/>
<path d="M5.3552 0.450805L8.5724 3.00537L5.3552 5.55993V4.49732H0.427602V1.51342H5.3552V0.450805ZM5.3552 0C5.29412 0 5.22285 0.0107335 5.16177 0.0429338C5.01923 0.118068 4.9276 0.27907 4.9276 0.450805V1.06261H0.427602C0.193439 1.06261 0 1.26655 0 1.51342V4.48658C0 4.73345 0.193439 4.93739 0.427602 4.93739H4.9276V5.54919C4.9276 5.72093 5.01923 5.88193 5.16177 5.95707C5.22285 5.98927 5.28394 6 5.3552 6C5.44683 6 5.53846 5.9678 5.60973 5.91413L8.82692 3.35957C8.93891 3.2737 9 3.1449 9 2.99463C9 2.84436 8.93891 2.71556 8.82692 2.6297L5.61991 0.0858676C5.54864 0.0214669 5.45701 0 5.36538 0H5.3552Z" fill="black"/>
</g>
<defs>
<clipPath id="clip0_5401_5852">
<rect width="9" height="6" fill="white"/>
</clipPath>
</defs>
</svg>
