<svg width="22" height="16" viewBox="0 0 22 16" fill="none" xmlns="http://www.w3.org/2000/svg">
<rect x="0.597656" y="4" width="20.8" height="12" rx="2" fill="white"/>
<rect x="0.597656" width="20.8" height="3.2" rx="1" fill="white"/>
<path opacity="0.8" d="M10.4773 10.144C10.4773 10.6027 10.4399 11.0133 10.3653 11.376C10.2959 11.7387 10.1813 12.048 10.0213 12.304C9.8666 12.5547 9.66127 12.7467 9.40527 12.88C9.1546 13.0133 8.84527 13.08 8.47727 13.08C8.0186 13.08 7.6426 12.9627 7.34927 12.728C7.05593 12.4933 6.83727 12.1573 6.69327 11.72C6.5546 11.2827 6.48527 10.7573 6.48527 10.144C6.48527 9.52533 6.54927 8.99733 6.67727 8.56C6.80527 8.12267 7.01593 7.78667 7.30927 7.552C7.6026 7.31733 7.99193 7.2 8.47727 7.2C8.93593 7.2 9.31193 7.31733 9.60527 7.552C9.8986 7.78133 10.1173 8.11733 10.2613 8.56C10.4053 8.99733 10.4773 9.52533 10.4773 10.144ZM7.68527 10.144C7.68527 10.576 7.70927 10.9387 7.75727 11.232C7.80527 11.52 7.88527 11.7387 7.99727 11.888C8.1146 12.032 8.2746 12.104 8.47727 12.104C8.67993 12.104 8.83727 12.032 8.94927 11.888C9.0666 11.744 9.14927 11.528 9.19727 11.24C9.2506 10.9467 9.27727 10.5813 9.27727 10.144C9.27727 9.70667 9.2506 9.344 9.19727 9.056C9.14927 8.76267 9.0666 8.544 8.94927 8.4C8.83727 8.25067 8.67993 8.176 8.47727 8.176C8.2746 8.176 8.1146 8.25067 7.99727 8.4C7.88527 8.544 7.80527 8.76267 7.75727 9.056C7.70927 9.344 7.68527 9.70667 7.68527 10.144ZM15.0554 10.144C15.0554 10.6027 15.0181 11.0133 14.9434 11.376C14.8741 11.7387 14.7594 12.048 14.5994 12.304C14.4447 12.5547 14.2394 12.7467 13.9834 12.88C13.7327 13.0133 13.4234 13.08 13.0554 13.08C12.5967 13.08 12.2207 12.9627 11.9274 12.728C11.6341 12.4933 11.4154 12.1573 11.2714 11.72C11.1327 11.2827 11.0634 10.7573 11.0634 10.144C11.0634 9.52533 11.1274 8.99733 11.2554 8.56C11.3834 8.12267 11.5941 7.78667 11.8874 7.552C12.1807 7.31733 12.5701 7.2 13.0554 7.2C13.5141 7.2 13.8901 7.31733 14.1834 7.552C14.4767 7.78133 14.6954 8.11733 14.8394 8.56C14.9834 8.99733 15.0554 9.52533 15.0554 10.144ZM12.2634 10.144C12.2634 10.576 12.2874 10.9387 12.3354 11.232C12.3834 11.52 12.4634 11.7387 12.5754 11.888C12.6927 12.032 12.8527 12.104 13.0554 12.104C13.2581 12.104 13.4154 12.032 13.5274 11.888C13.6447 11.744 13.7274 11.528 13.7754 11.24C13.8287 10.9467 13.8554 10.5813 13.8554 10.144C13.8554 9.70667 13.8287 9.344 13.7754 9.056C13.7274 8.76267 13.6447 8.544 13.5274 8.4C13.4154 8.25067 13.2581 8.176 13.0554 8.176C12.8527 8.176 12.6927 8.25067 12.5754 8.4C12.4634 8.544 12.3834 8.76267 12.3354 9.056C12.2874 9.344 12.2634 9.70667 12.2634 10.144Z" fill="black"/>
<g opacity="0.8">
<circle cx="3.79805" cy="1.60054" r="0.8" fill="black"/>
<circle cx="18.1984" cy="1.60029" r="0.8" fill="black"/>
</g>
</svg>
