<svg width="22" height="16" viewBox="0 0 22 16" fill="none" xmlns="http://www.w3.org/2000/svg">
<path d="M15.6337 5.22548H12.5559C12.2942 5.22548 12.0457 5.11615 11.8668 4.9273L10.8861 3.87044C10.7072 3.67828 10.4588 3.57227 10.197 3.57227H7.371C7.10926 3.57227 6.86079 3.6816 6.68188 3.87044L5.70122 4.9273C5.52231 5.11946 5.27383 5.22548 5.0121 5.22548H1.93759C1.42076 5.22548 1 5.64624 1 6.16307V14.5583C1 15.0752 1.42076 15.4959 1.93759 15.4959H15.6337C16.1506 15.4959 16.5713 15.0752 16.5713 14.5583V6.16307C16.5713 5.64624 16.1506 5.22548 15.6337 5.22548Z" fill="white"/>
<path d="M12.8243 7.79309C12.8243 8.11446 13.0827 8.37288 13.4041 8.37288C13.7254 8.37288 13.9838 8.11446 13.9838 7.79309M15.6337 5.22548H12.5559C12.2942 5.22548 12.0457 5.11615 11.8668 4.9273L10.8861 3.87044C10.7072 3.67828 10.4588 3.57227 10.197 3.57227H7.371C7.10926 3.57227 6.86079 3.6816 6.68188 3.87044L5.70122 4.9273C5.52231 5.11946 5.27383 5.22548 5.0121 5.22548H1.93759C1.42076 5.22548 1 5.64624 1 6.16307V14.5583C1 15.0752 1.42076 15.4959 1.93759 15.4959H15.6337C16.1506 15.4959 16.5713 15.0752 16.5713 14.5583V6.16307C16.5713 5.64624 16.1506 5.22548 15.6337 5.22548Z" stroke="white" stroke-miterlimit="10"/>
<path d="M8.78802 13.5077C10.5263 13.5077 11.9354 12.0985 11.9354 10.3603C11.9354 8.62203 10.5263 7.21289 8.78802 7.21289C7.04976 7.21289 5.64062 8.62203 5.64062 10.3603C5.64062 12.0985 7.04976 13.5077 8.78802 13.5077Z" stroke="#1A823B" stroke-miterlimit="10"/>
<path d="M17.0957 2.90625H20.9057" stroke="white" stroke-miterlimit="10" stroke-linecap="round"/>
<path d="M19.002 4.81001V1" stroke="white" stroke-miterlimit="10" stroke-linecap="round"/>
</svg>
