<svg width="22" height="22" viewBox="0 0 22 22" fill="none" xmlns="http://www.w3.org/2000/svg">
<path d="M11.1655 9.33885C13.4682 9.33885 15.3349 7.47213 15.3349 5.16942C15.3349 2.86671 13.4682 1 11.1655 1C8.86281 1 6.99609 2.86671 6.99609 5.16942C6.99609 7.47213 8.86281 9.33885 11.1655 9.33885Z" stroke="#1A823B" stroke-linecap="round" stroke-linejoin="round"/>
<path d="M5.16943 20.9995C7.47214 20.9995 9.33884 19.1328 9.33884 16.8301C9.33884 14.5274 7.47214 12.6606 5.16943 12.6606C2.86672 12.6606 1 14.5274 1 16.8301C1 19.1328 2.86672 20.9995 5.16943 20.9995Z" stroke="#1A823B" stroke-linecap="round" stroke-linejoin="round"/>
<path d="M17.1616 20.9995C19.4643 20.9995 21.331 19.1328 21.331 16.8301C21.331 14.5274 19.4643 12.6606 17.1616 12.6606C14.8589 12.6606 12.9922 14.5274 12.9922 16.8301C12.9922 19.1328 14.8589 20.9995 17.1616 20.9995Z" fill="#1A823B" stroke="#1A823B" stroke-linecap="round" stroke-linejoin="round"/>
</svg>
