<svg width="22" height="22" viewBox="0 0 22 22" fill="none" xmlns="http://www.w3.org/2000/svg">
<path d="M5.57233 12.1825C6.47414 12.1825 7.2052 11.4514 7.2052 10.5496C7.2052 9.64781 6.47414 8.91675 5.57233 8.91675C4.67052 8.91675 3.93945 9.64781 3.93945 10.5496C3.93945 11.4514 4.67052 12.1825 5.57233 12.1825Z" fill="#A0A0A0"/>
<path d="M11.4512 12.1825C12.353 12.1825 13.0841 11.4514 13.0841 10.5496C13.0841 9.64781 12.353 8.91675 11.4512 8.91675C10.5494 8.91675 9.81836 9.64781 9.81836 10.5496C9.81836 11.4514 10.5494 12.1825 11.4512 12.1825Z" fill="#A0A0A0"/>
<path d="M17.3282 12.1825C18.23 12.1825 18.9611 11.4514 18.9611 10.5496C18.9611 9.64781 18.23 8.91675 17.3282 8.91675C16.4264 8.91675 15.6953 9.64781 15.6953 10.5496C15.6953 11.4514 16.4264 12.1825 17.3282 12.1825Z" fill="#A0A0A0"/>
<path d="M11.4514 20.0981C16.7252 20.0981 21.0004 15.8228 21.0004 10.549C21.0004 5.27525 16.7252 1 11.4514 1C6.1776 1 1.90234 5.27525 1.90234 10.549C1.90234 15.8228 6.1776 20.0981 11.4514 20.0981Z" stroke="#A0A0A0" stroke-width="0.94" stroke-linecap="round" stroke-linejoin="round"/>
<path d="M2.3063 21.0589C3.02775 21.0589 3.6126 20.474 3.6126 19.7526C3.6126 19.0311 3.02775 18.4463 2.3063 18.4463C1.58485 18.4463 1 19.0311 1 19.7526C1 20.474 1.58485 21.0589 2.3063 21.0589Z" stroke="#A0A0A0" stroke-width="0.94" stroke-linecap="round" stroke-linejoin="round"/>
</svg>
