<svg width="21" height="22" viewBox="0 0 21 22" fill="none" xmlns="http://www.w3.org/2000/svg">
<path d="M19.3225 13.5197L17.9052 12.6535C18.0233 12.1417 18.102 11.5906 18.102 11C18.102 10.5669 18.0627 10.1339 17.9839 9.70079L19.4406 8.91339C19.9524 8.6378 20.1493 7.9685 19.8737 7.45669L18.4957 4.97638C18.2201 4.46457 17.5509 4.26772 17.039 4.54331L15.5823 5.33071C14.8737 4.66142 14.0075 4.14961 13.102 3.83465V2.1811C13.1414 1.59055 12.7083 1.11811 12.1178 1.07874L9.28314 1C8.69259 1 8.22014 1.43307 8.18077 2.02362V3.71654C7.19652 4.0315 6.33038 4.50394 5.58235 5.09449L4.16503 4.22835C3.65321 3.91339 3.02329 4.07087 2.70833 4.58268L1.21227 7.02362C0.897309 7.53543 1.05479 8.16535 1.5666 8.48031L2.98392 9.34646C2.86581 9.85827 2.78707 10.4094 2.78707 11C2.78707 11.4331 2.82644 11.8661 2.90518 12.2992L1.44849 13.0866C0.936679 13.3622 0.739829 14.0315 1.01542 14.5433L2.39337 17.0236C2.66896 17.5354 3.33825 17.7323 3.85007 17.4567L5.30676 16.6693C6.01542 17.3386 6.84219 17.8504 7.78707 18.1654V19.8189C7.7477 20.4094 8.18077 20.8819 8.77132 20.9213L11.606 21C12.1965 21 12.669 20.5669 12.7083 19.9764V18.2835C13.6926 17.9685 14.5587 17.4961 15.3068 16.9055L16.7241 17.7717C17.2359 18.0866 17.8658 17.9291 18.1808 17.4173L19.6768 14.9764C19.9918 14.4646 19.8343 13.8346 19.3225 13.5197ZM10.4642 14.3465C8.61384 14.3465 7.11778 12.8504 7.11778 11C7.11778 9.14961 8.61384 7.65354 10.4642 7.65354C12.3146 7.65354 13.8107 9.14961 13.8107 11C13.8107 12.8504 12.3146 14.3465 10.4642 14.3465Z" stroke="#A0A0A0" stroke-linecap="round" stroke-linejoin="round"/>
</svg>
