<svg width="36" height="35" viewBox="0 0 36 35" fill="none" xmlns="http://www.w3.org/2000/svg">
<path d="M6.99609 18.9628C6.99609 16.3378 9.11079 14.2128 11.7231 14.2128H28.8645C31.4768 14.2128 33.5915 12.0878 33.5915 9.46285C33.5915 6.83787 31.4768 4.71289 28.8645 4.71289H12.7182" stroke="black" stroke-linecap="round" stroke-linejoin="round"/>
<path d="M27.3738 23.7119H15.8301" stroke="black" stroke-linecap="round" stroke-linejoin="round"/>
<path d="M9.48597 7.68725C11.121 7.68725 12.4465 6.35531 12.4465 4.71228C12.4465 3.06925 11.121 1.7373 9.48597 1.7373C7.85089 1.7373 6.52539 3.06925 6.52539 4.71228C6.52539 6.35531 7.85089 7.68725 9.48597 7.68725Z" stroke="black" stroke-linecap="round" stroke-linejoin="round"/>
<path d="M30.6325 26.4373C32.2675 26.4373 33.593 25.1053 33.593 23.4623C33.593 21.8192 32.2675 20.4873 30.6325 20.4873C28.9974 20.4873 27.6719 21.8192 27.6719 23.4623C27.6719 25.1053 28.9974 26.4373 30.6325 26.4373Z" stroke="black" stroke-linecap="round" stroke-linejoin="round"/>
<path opacity="0.3" d="M19.8357 24.3511C19.8357 25.3636 17.9076 25.9886 17.5469 26.8761C17.1861 27.7636 18.0693 29.601 17.3852 30.2885C16.701 30.976 14.8973 30.0635 13.9892 30.451C13.0811 30.8385 12.484 32.751 11.4765 32.751C10.4689 32.751 9.8469 30.8135 8.9637 30.451C8.0805 30.0885 6.25191 30.976 5.56775 30.2885C4.88358 29.601 5.79166 27.7886 5.40604 26.8761C5.02041 25.9636 3.11719 25.3636 3.11719 24.3511C3.11719 23.3386 5.04529 22.7136 5.40604 21.8261C5.76678 20.9386 4.88358 19.1011 5.56775 18.4136C6.25191 17.7262 8.05562 18.6386 8.9637 18.2512C9.87178 17.8637 10.4689 15.9512 11.4765 15.9512C12.484 15.9512 13.106 17.8887 13.9892 18.2512C14.8724 18.6136 16.701 17.7262 17.3852 18.4136C18.0693 19.1011 17.1613 20.9136 17.5469 21.8261C17.9325 22.7386 19.8357 23.3386 19.8357 24.3511Z" fill="#1A823B"/>
<path d="M17.3474 25.6011C17.3474 26.6136 15.4193 27.2386 15.0586 28.1261C14.6979 29.0136 15.5811 30.851 14.8969 31.5385C14.2127 32.226 12.409 31.3135 11.5009 31.701C10.5929 32.0885 9.99577 34.001 8.98818 34.001C7.98059 34.001 7.35862 32.0635 6.47542 31.701C5.59222 31.3385 3.76363 32.226 3.07947 31.5385C2.3953 30.851 3.30337 29.0386 2.91775 28.1261C2.53213 27.2136 0.628906 26.6136 0.628906 25.6011C0.628906 24.5886 2.55701 23.9636 2.91775 23.0761C3.2785 22.1886 2.3953 20.3511 3.07947 19.6636C3.76363 18.9762 5.56734 19.8886 6.47542 19.5012C7.38349 19.1137 7.98059 17.2012 8.98818 17.2012C9.99577 17.2012 10.6177 19.1387 11.5009 19.5012C12.3841 19.8636 14.2127 18.9762 14.8969 19.6636C15.5811 20.3511 14.673 22.1636 15.0586 23.0761C15.4442 23.9886 17.3474 24.5886 17.3474 25.6011Z" stroke="black" stroke-linecap="round" stroke-linejoin="round"/>
<path d="M5.56836 25.3367L8.01892 27.8117L12.41 23.3867" stroke="black" stroke-linecap="round" stroke-linejoin="round"/>
<path opacity="0.3" d="M32.5083 24.9999C34.2258 24.9999 35.6181 23.6008 35.6181 21.875C35.6181 20.1491 34.2258 18.75 32.5083 18.75C30.7908 18.75 29.3984 20.1491 29.3984 21.875C29.3984 23.6008 30.7908 24.9999 32.5083 24.9999Z" fill="#1A823B"/>
<path opacity="0.3" d="M11.3638 6.24994C13.0813 6.24994 14.4736 4.85085 14.4736 3.12497C14.4736 1.3991 13.0813 0 11.3638 0C9.64623 0 8.25391 1.3991 8.25391 3.12497C8.25391 4.85085 9.64623 6.24994 11.3638 6.24994Z" fill="#1A823B"/>
</svg>
