<svg width="13" height="12" viewBox="0 0 13 12" fill="none" xmlns="http://www.w3.org/2000/svg">
<path d="M6.99194 1.32181L8.21412 3.69054C8.30011 3.86099 8.47207 3.97855 8.6686 4.00794L11.3955 4.38999C11.8868 4.46052 12.0834 5.03654 11.7271 5.37157L9.74953 7.2113C9.60828 7.34649 9.54072 7.53458 9.57757 7.72267L10.0443 10.3265C10.1303 10.7967 9.61442 11.1553 9.17222 10.9319L6.73399 9.70347C6.55588 9.6153 6.34707 9.6153 6.1751 9.70347L3.73687 10.9319C3.29467 11.1553 2.77878 10.7967 2.86476 10.3265L3.33152 7.72267C3.36223 7.53458 3.30082 7.34649 3.15956 7.2113L1.18195 5.37157C0.825737 5.03654 1.02227 4.46052 1.5136 4.38999L4.24049 4.00794C4.43702 3.97855 4.60898 3.86099 4.69497 3.69054L5.91715 1.32181C6.13825 0.892731 6.77698 0.892731 6.99808 1.32181H6.99194Z" fill="#A0A0A0" stroke="#A0A0A0" stroke-linecap="round" stroke-linejoin="round"/>
</svg>
