<svg width="13" height="12" viewBox="0 0 13 12" fill="none" xmlns="http://www.w3.org/2000/svg">
<path d="M11.731 2.71617C11.3184 1.85448 10.3128 0.935735 9.11551 1.00421C8.42385 1.04416 7.75545 1.41508 7.2614 2.00856C6.86036 2.48791 6.14545 2.48791 5.74441 2.00856C5.24455 1.41508 4.58196 1.04987 3.8903 1.00421C2.69298 0.930028 1.68165 1.84878 1.26898 2.71617C0.0890926 5.18138 3.14633 8.50256 3.59388 8.99332C4.43084 9.90637 5.30849 10.5284 6.01758 10.9507C6.31401 11.1276 6.68599 11.1276 6.98242 10.9507C7.69151 10.5284 8.56916 9.90637 9.40612 8.99332C9.85367 8.50256 12.9109 5.18138 11.731 2.71617Z" stroke="#A0A0A0" stroke-linecap="round" stroke-linejoin="round"/>
</svg>
