<svg width="207" height="213" viewBox="0 0 207 213" fill="none" xmlns="http://www.w3.org/2000/svg">
<ellipse opacity="0.3" cx="47.5" cy="137" rx="45.5" ry="45" fill="#1A823B"/>
<ellipse opacity="0.3" cx="144.5" cy="137" rx="45.5" ry="45" fill="#1A823B"/>
<ellipse cx="96.5" cy="45" rx="45.5" ry="45" fill="#1A823B"/>
<path d="M76 45.56L89.4535 59L117.481 31" stroke="white" stroke-width="8" stroke-linecap="round" stroke-linejoin="round"/>
<g clip-path="url(#clip0_6533_9331)">
<path d="M23.3901 135.57H34.4201V167.67C31.8301 165.11 26.8101 159.43 24.4001 150.61C22.6801 144.32 22.9601 138.9 23.4001 135.58L23.3901 135.57Z" fill="#2B323E" stroke="black" stroke-width="2" stroke-miterlimit="10" stroke-linecap="round"/>
<path d="M34.4203 135.57V145.62C33.3103 144.78 31.8703 144.37 30.3003 144.72C28.4103 145.14 26.8803 146.68 26.5003 148.58C25.8603 151.8 28.3103 154.62 31.4103 154.62C32.5403 154.62 33.5803 154.23 34.4203 153.59V189.39H59.4803V172.43C67.8903 172.43 74.7103 165.61 74.7103 157.2V135.56H34.4303L34.4203 135.57Z" fill="#F9D3D2" stroke="black" stroke-width="2" stroke-miterlimit="10" stroke-linecap="round"/>
<path d="M73.5001 131.56C73.2301 117.95 62.1301 107 48.4501 107C34.7701 107 23.6701 117.95 23.4001 131.56H23.3901V135.57H73.5101V131.56H73.5001Z" fill="#007311" stroke="black" stroke-width="2" stroke-miterlimit="10" stroke-linecap="round"/>
<path d="M34.4199 135.57H74.6999C80.2099 131.94 80.7599 129.76 80.5199 128.55C79.7499 124.58 68.8099 123.12 61.4799 123.54C59.7899 123.64 54.6799 124.04 48.4499 126.55C41.7599 129.24 37.1199 133.02 34.4199 135.57Z" fill="#007311" stroke="black" stroke-width="2" stroke-miterlimit="10" stroke-linecap="round"/>
<path d="M51.9602 151.61C53.3464 151.61 54.4702 150.038 54.4702 148.1C54.4702 146.161 53.3464 144.59 51.9602 144.59C50.574 144.59 49.4502 146.161 49.4502 148.1C49.4502 150.038 50.574 151.61 51.9602 151.61Z" fill="black" stroke="black" stroke-width="2" stroke-miterlimit="10" stroke-linecap="round"/>
<path d="M64.99 151.61C66.3762 151.61 67.5 150.038 67.5 148.1C67.5 146.161 66.3762 144.59 64.99 144.59C63.6037 144.59 62.48 146.161 62.48 148.1C62.48 150.038 63.6037 151.61 64.99 151.61Z" fill="black" stroke="black" stroke-width="2" stroke-miterlimit="10" stroke-linecap="round"/>
<path d="M47.4502 142.58C48.3202 141.54 49.8902 140.96 51.4602 141.1C53.3702 141.27 54.3502 142.44 54.4702 142.58" stroke="black" stroke-width="2" stroke-miterlimit="10" stroke-linecap="round"/>
<path d="M61.48 142.58C62.35 141.54 63.92 140.96 65.49 141.1C67.4 141.27 68.38 142.44 68.5 142.58" stroke="black" stroke-width="2" stroke-miterlimit="10" stroke-linecap="round"/>
<path d="M58.9399 158.39C59.2099 158.5 59.4999 158.58 59.8199 158.6C61.3499 158.69 62.6699 157.53 62.7599 156C62.8499 154.47 61.6899 153.15 60.1599 153.06C59.6099 153.03 59.0799 153.16 58.6299 153.42" stroke="black" stroke-width="2" stroke-miterlimit="10" stroke-linecap="round"/>
<path d="M51.46 158.62C51.84 159.31 53.62 162.43 57.47 163.63C60.21 164.48 62.55 163.91 63.48 163.63" stroke="black" stroke-width="2" stroke-miterlimit="10" stroke-linecap="round"/>
<path d="M43.9402 157.62C45.8787 157.62 47.4502 156.496 47.4502 155.11C47.4502 153.724 45.8787 152.6 43.9402 152.6C42.0017 152.6 40.4302 153.724 40.4302 155.11C40.4302 156.496 42.0017 157.62 43.9402 157.62Z" fill="#FF0000" stroke="black" stroke-width="2" stroke-miterlimit="10" stroke-linecap="round"/>
<path d="M72.0601 186.14H67.0601V177.39C67.0601 175.22 64.8101 173.79 62.8501 174.71L48.7401 181.29L32.8801 174.4C30.9201 173.55 28.7401 174.98 28.7401 177.12V186.15H26.0601C12.2501 186.15 1.06006 197.34 1.06006 211.15H97.0601C97.0601 197.34 85.8701 186.15 72.0601 186.15V186.14Z" fill="white" stroke="black" stroke-width="2.12" stroke-miterlimit="10" stroke-linecap="round"/>
<path d="M48.7402 181.29V194.57" stroke="black" stroke-width="2.12" stroke-miterlimit="10" stroke-linecap="round"/>
<path d="M157.602 137.14V140.1C160.272 138.61 163.792 137.23 166.472 138.62C172.332 141.65 167.522 154.5 173.602 165.14C176.202 169.69 181.392 174.86 192.602 178.14L197.602 175.14L188.602 169.14L199.602 173.14L210.602 155.14C192.932 161.42 185.792 159.41 182.602 156.14C178.502 151.94 180.482 145.19 173.602 139.14C172.152 137.87 169.072 135.24 164.602 135.14C161.372 135.07 158.862 136.36 157.602 137.14Z" fill="#2B323E" stroke="black" stroke-width="2" stroke-linecap="round" stroke-linejoin="round"/>
<path d="M154.1 134.64V144.66C155.2 143.83 156.65 143.41 158.21 143.76C160.1 144.18 161.62 145.71 162 147.61C162.64 150.82 160.2 153.64 157.1 153.64C155.97 153.64 154.94 153.25 154.1 152.62V182.14H129.1V171.42C120.71 171.42 113.91 164.62 113.91 156.23V134.64H154.1Z" fill="#F9D3D2" stroke="black" stroke-width="2" stroke-linecap="round" stroke-linejoin="round"/>
<path d="M115.112 131.2C115.382 119.53 126.462 110.14 140.102 110.14C153.742 110.14 164.822 119.53 165.092 131.2H165.102V134.64H115.102V131.2H115.112Z" fill="#007311" stroke="black" stroke-width="2" stroke-linecap="round" stroke-linejoin="round"/>
<path d="M154.1 144.66C152.66 144.57 151.16 144.4 149.6 144.14C140.83 142.64 134.1 138.61 129.6 135.14C127.55 137.28 123.92 140.41 118.6 142.14C116.91 142.69 115.33 143.01 113.91 143.18V134.64L131.08 130.14L154.1 134.64H165.1C165.54 137.96 165.82 143.36 164.1 149.64C161.69 158.44 156.68 164.11 154.1 166.67" fill="#2B323E"/>
<path d="M154.1 144.66C152.66 144.57 151.16 144.4 149.6 144.14C140.83 142.64 134.1 138.61 129.6 135.14C127.55 137.28 123.92 140.41 118.6 142.14C116.91 142.69 115.33 143.01 113.91 143.18V134.64L131.08 130.14L154.1 134.64H165.1C165.54 137.96 165.82 143.36 164.1 149.64C161.69 158.44 156.68 164.11 154.1 166.67" stroke="black" stroke-width="2" stroke-linecap="round" stroke-linejoin="round"/>
<path d="M154.101 134.64H113.911C108.421 131.02 107.871 128.84 108.101 127.64C108.871 123.68 119.781 122.22 127.101 122.64C128.791 122.74 133.891 123.14 140.101 125.64C146.781 128.32 151.411 132.09 154.101 134.64Z" fill="#007311" stroke="black" stroke-width="2" stroke-linecap="round" stroke-linejoin="round"/>
<path d="M154.102 144.66C155.202 143.83 156.652 143.41 158.212 143.76C160.102 144.18 161.622 145.71 162.002 147.61C162.642 150.82 160.202 153.64 157.102 153.64C155.972 153.64 154.942 153.25 154.102 152.62V177.64" fill="#F9D3D2"/>
<path d="M154.102 144.66C155.202 143.83 156.652 143.41 158.212 143.76C160.102 144.18 161.622 145.71 162.002 147.61C162.642 150.82 160.202 153.64 157.102 153.64C155.972 153.64 154.942 153.25 154.102 152.62V177.64" stroke="black" stroke-width="2" stroke-linecap="round" stroke-linejoin="round"/>
<path d="M165.059 186.14H160.059V177.39C160.059 175.22 157.809 173.79 155.849 174.71L141.739 181.29L125.879 174.4C123.919 173.55 121.739 174.98 121.739 177.12V186.15H119.059C105.249 186.15 94.0586 197.34 94.0586 211.15H190.059C190.059 197.34 178.869 186.15 165.059 186.15V186.14Z" fill="white" stroke="black" stroke-width="2.12" stroke-miterlimit="10" stroke-linecap="round"/>
<path d="M141.739 181.291V194.571" stroke="black" stroke-width="2.12" stroke-miterlimit="10" stroke-linecap="round"/>
<path d="M135.971 151.61C137.357 151.61 138.481 150.038 138.481 148.1C138.481 146.161 137.357 144.59 135.971 144.59C134.585 144.59 133.461 146.161 133.461 148.1C133.461 150.038 134.585 151.61 135.971 151.61Z" fill="black" stroke="black" stroke-width="2" stroke-miterlimit="10" stroke-linecap="round"/>
<path d="M122.94 151.61C124.326 151.61 125.45 150.038 125.45 148.1C125.45 146.161 124.326 144.59 122.94 144.59C121.553 144.59 120.43 146.161 120.43 148.1C120.43 150.038 121.553 151.61 122.94 151.61Z" fill="black" stroke="black" stroke-width="2" stroke-miterlimit="10" stroke-linecap="round"/>
<path d="M140.481 142.58C139.611 141.54 138.041 140.96 136.471 141.1C134.561 141.27 133.581 142.44 133.461 142.58" stroke="black" stroke-width="2" stroke-miterlimit="10" stroke-linecap="round"/>
<path d="M126.45 142.58C125.58 141.54 124.01 140.96 122.44 141.1C120.53 141.27 119.55 142.44 119.43 142.58" stroke="black" stroke-width="2" stroke-miterlimit="10" stroke-linecap="round"/>
<path d="M128.989 158.39C128.719 158.5 128.429 158.58 128.109 158.6C126.579 158.69 125.259 157.53 125.169 156C125.079 154.47 126.239 153.15 127.769 153.06C128.319 153.03 128.849 153.16 129.299 153.42" stroke="black" stroke-width="2" stroke-miterlimit="10" stroke-linecap="round"/>
<path d="M136.469 158.62C136.089 159.31 134.309 162.43 130.459 163.63C127.719 164.48 125.379 163.91 124.449 163.63" stroke="black" stroke-width="2" stroke-miterlimit="10" stroke-linecap="round"/>
<path d="M143.99 157.62C145.929 157.62 147.5 156.496 147.5 155.11C147.5 153.723 145.929 152.6 143.99 152.6C142.052 152.6 140.48 153.723 140.48 155.11C140.48 156.496 142.052 157.62 143.99 157.62Z" fill="#FF0000" stroke="black" stroke-width="2" stroke-miterlimit="10" stroke-linecap="round"/>
</g>
<defs>
<clipPath id="clip0_6533_9331">
<rect width="206.6" height="106.2" fill="white" transform="translate(0 106)"/>
</clipPath>
</defs>
</svg>
