<svg width="80" height="59" viewBox="0 0 80 59" fill="none" xmlns="http://www.w3.org/2000/svg">
<path d="M57.9186 17.4302H45.9473C44.9293 17.4302 43.9628 17.005 43.2669 16.2705L39.4526 12.1598C38.7567 11.4124 37.7903 11 36.7723 11H25.7803C24.7623 11 23.7958 11.4252 23.0999 12.1598L19.2856 16.2705C18.5897 17.0179 17.6233 17.4302 16.6053 17.4302H4.64681C2.63655 17.4302 1 19.0668 1 21.0771V53.7308C1 55.7411 2.63655 57.3776 4.64681 57.3776H57.9186C59.9289 57.3776 61.5654 55.7411 61.5654 53.7308V21.0771C61.5654 19.0668 59.9289 17.4302 57.9186 17.4302ZM49.2461 29.6722C47.9962 29.6722 46.9911 28.6671 46.9911 27.4171C46.9911 26.1671 47.9962 25.162 49.2461 25.162C50.4961 25.162 51.5012 26.1671 51.5012 27.4171C51.5012 28.6671 50.4961 29.6722 49.2461 29.6722Z" fill="#A0A0A0" stroke="#A0A0A0" stroke-width="2" stroke-miterlimit="10"/>
<path d="M31.2849 49.647C38.046 49.647 43.5269 44.1661 43.5269 37.405C43.5269 30.644 38.046 25.1631 31.2849 25.1631C24.5239 25.1631 19.043 30.644 19.043 37.405C19.043 44.1661 24.5239 49.647 31.2849 49.647Z" fill="#E1E1E1" stroke="#A0A0A0" stroke-width="2" stroke-miterlimit="10"/>
<path d="M63.582 8.40942H78.4012" stroke="#A0A0A0" stroke-width="2" stroke-miterlimit="10" stroke-linecap="round"/>
<path d="M70.9932 15.8192V1" stroke="#A0A0A0" stroke-width="2" stroke-miterlimit="10" stroke-linecap="round"/>
</svg>
