<svg width="19" height="23" viewBox="0 0 19 23" fill="none" xmlns="http://www.w3.org/2000/svg">
<path d="M4.40039 8.33349V5.8401C4.40039 3.1756 6.70785 1 9.53383 1C12.3598 1 14.6673 3.1756 14.6673 5.8401V8.33349" stroke="black" stroke-width="1.5" stroke-linecap="round" stroke-linejoin="round"/>
<path d="M0.75 21.3434V10.0515C0.75 9.55466 1.15964 9.14502 1.65651 9.14502H16.5927C17.0896 9.14502 17.4993 9.55466 17.4993 10.0515V21.3434C17.4993 21.8403 17.0896 22.2499 16.5927 22.2499H1.65651C1.15965 22.2499 0.75 21.8403 0.75 21.3434ZM6.06931 15.6837C6.06931 17.3679 7.42661 18.7252 9.11082 18.7252C10.795 18.7252 12.1523 17.3679 12.1523 15.6837C12.1523 13.9995 10.795 12.6422 9.11082 12.6422C7.42661 12.6422 6.06931 13.9995 6.06931 15.6837Z" stroke="black" stroke-width="1.5" stroke-linecap="round" stroke-linejoin="round"/>
</svg>
