<svg width="35" height="35" viewBox="0 0 35 35" fill="none" xmlns="http://www.w3.org/2000/svg">
<path d="M12.9852 1C7.95839 1.60986 4.04866 5.7885 4.04866 10.848V19.6571C3.83921 19.5441 3.62976 19.4764 3.37377 19.4764C2.07052 19.4764 1 20.5154 1 21.7803V29.0986C1 29.8439 1.62835 30.4538 2.39633 30.4538H3.37377C3.65303 30.4538 3.90903 30.3635 4.11848 30.2279C4.5141 32.3737 6.42243 34 8.72638 34H26.2736C28.5776 34 30.5092 32.3737 30.8815 30.2279C31.091 30.3635 31.347 30.4538 31.6262 30.4538H32.6037C33.3716 30.4538 34 29.8439 34 29.0986V21.7803C34 20.5154 32.9295 19.4764 31.6262 19.4764C31.3702 19.4764 31.1608 19.5441 30.9513 19.6571V10.848C30.9513 5.7885 27.0416 1.63244 22.0148 1.02259H12.9619L12.9852 1ZM27.1812 17.3306V22.7967C27.1812 23.3388 26.7158 23.7906 26.1573 23.7906C25.5987 23.7906 25.1333 23.3388 25.1333 22.7967V17.8275H7.98166V15.8398H27.1812V17.3306Z" stroke="#1A823B" stroke-linecap="round" stroke-linejoin="round"/>
<path d="M27.182 22.7972V17.3311V15.8403H17.5822H7.98242V17.828H25.134V22.7972C25.134 23.3393 25.5995 23.7911 26.158 23.7911C26.7166 23.7911 27.182 23.3393 27.182 22.7972Z" fill="#1A823B" stroke="#1A823B" stroke-linecap="round" stroke-linejoin="round"/>
</svg>
