<svg width="34" height="35" viewBox="0 0 34 35" fill="none" xmlns="http://www.w3.org/2000/svg">
<g opacity="0.3">
<path d="M14.5723 7.95996H29.0366" stroke="#1A823B" stroke-width="2" stroke-linecap="round" stroke-linejoin="round"/>
<path d="M14.5723 14.71L29.0366 14.71" stroke="#1A823B" stroke-width="2" stroke-linecap="round" stroke-linejoin="round"/>
</g>
<path opacity="0.3" fill-rule="evenodd" clip-rule="evenodd" d="M18.5911 15.9183C20.5583 16.5676 21.9319 18.4111 22.2229 20.1967C22.2639 20.4454 22.2843 20.6941 22.2856 20.9427C22.2857 20.9427 22.2857 20.9427 22.2857 20.9427H29.0357C29.588 20.9427 30.0357 21.3904 30.0357 21.9427C30.0357 22.4949 29.588 22.9427 29.0357 22.9427H22.2857C22.1616 22.9427 22.0427 22.92 21.9331 22.8787C20.8714 25.848 17.595 28.754 14.6217 31.3855C13.8185 32.1044 13.1201 32.6609 12.6429 33.0319C12.1656 32.6609 11.4672 32.1044 10.664 31.3855C6.79937 27.9651 2.42257 24.0809 3.06279 20.1967C3.3538 18.4111 4.72737 16.5676 6.6946 15.9183C8.66183 15.2806 10.9434 15.9299 12.6429 17.5647C14.3424 15.9183 16.6239 15.2806 18.5911 15.9183Z" fill="#1A823B"/>
<path d="M9.05078 18.997V5.01552C9.05078 2.7997 10.935 1 13.2548 1H28.7967C31.1166 1 33.0008 2.7997 33.0008 5.01552V26.1022C33.0008 28.318 31.1166 30.1177 28.7967 30.1177H14.5727" stroke="#1C1C1E" stroke-linecap="round" stroke-linejoin="round"/>
<path d="M13.1289 8.2832H27.8263" stroke="#1C1C1E" stroke-linecap="round" stroke-linejoin="round"/>
<path d="M13.1289 15.5664H27.8263" stroke="#1C1C1E" stroke-linecap="round" stroke-linejoin="round"/>
<path d="M19.3535 22.8467H27.8249" stroke="#1C1C1E" stroke-linecap="round" stroke-linejoin="round"/>
<path d="M18.9142 22.4829C18.6431 20.8809 17.3631 19.2268 15.53 18.6442C13.6969 18.0721 11.571 18.6442 9.98732 20.1214C8.40369 18.6546 6.27771 18.0721 4.44461 18.6442C2.6115 19.2268 1.33157 20.8809 1.0604 22.4829C0.452984 25.9679 4.54223 29.4528 8.13252 32.5217C8.88095 33.1667 9.53175 33.666 9.97647 33.9989C10.4212 33.666 11.072 33.1667 11.8204 32.5217C15.4216 29.4528 19.5 25.9679 18.9034 22.4829H18.9142Z" stroke="#1C1C1E" stroke-linecap="round" stroke-linejoin="round"/>
</svg>
