<svg width="17" height="21" viewBox="0 0 17 21" fill="none" xmlns="http://www.w3.org/2000/svg">
<path d="M4 7.66668V5.40001C4 2.97778 6.09765 1 8.66667 1C11.2357 1 13.3333 2.97778 13.3333 5.40001V7.66668" stroke="white" stroke-linecap="round" stroke-linejoin="round"/>
<path d="M0.5 19.4937V9.22855C0.5 8.67645 0.953793 8.22266 1.50589 8.22266H15.084C15.6361 8.22266 16.0899 8.67645 16.0899 9.22855V19.4937C16.0899 20.0458 15.6361 20.4996 15.084 20.4996H1.50589C0.953794 20.4996 0.5 20.0458 0.5 19.4937ZM5.69925 14.3486C5.69925 15.7792 6.85174 16.9317 8.2824 16.9317C9.71306 16.9317 10.8656 15.7792 10.8656 14.3486C10.8656 12.9179 9.71306 11.7654 8.2824 11.7654C6.85174 11.7654 5.69925 12.9179 5.69925 14.3486Z" stroke="white" stroke-linecap="round" stroke-linejoin="round"/>
</svg>
