<svg width="24" height="24" viewBox="0 0 24 24" fill="none" xmlns="http://www.w3.org/2000/svg">
<path d="M16.5199 14.9007C18.7616 14.9007 20.5789 13.0834 20.5789 10.8417C20.5789 8.59998 18.7616 6.78271 16.5199 6.78271C14.2782 6.78271 12.4609 8.59998 12.4609 10.8417C12.4609 13.0834 14.2782 14.9007 16.5199 14.9007Z" stroke="#1C1C1E" stroke-width="1.5" stroke-linecap="round" stroke-linejoin="round"/>
<path d="M16.5206 16.5132C19.8753 16.5132 22.5998 19.2377 22.5998 22.5924V23.0001H10.4414V22.5924C10.4414 19.2377 13.1659 16.5132 16.5206 16.5132Z" stroke="#1C1C1E" stroke-width="1.5" stroke-linecap="round" stroke-linejoin="round"/>
<path d="M10.7026 20.4516H3.02949C1.90817 20.4516 1 19.5434 1 18.4221V3.02949C1 1.90817 1.90817 1 3.02949 1H14.7152C15.8366 1 16.7447 1.90817 16.7447 3.02949V6.57877" stroke="#1C1C1E" stroke-width="1.5" stroke-linecap="round" stroke-linejoin="round"/>
<path d="M3.78125 6.08789H13.975" stroke="#1C1C1E" stroke-width="1.5" stroke-linecap="round" stroke-linejoin="round"/>
<path d="M3.78125 10.7212H12.1216" stroke="#1C1C1E" stroke-width="1.5" stroke-linecap="round" stroke-linejoin="round"/>
<path d="M3.78125 15.355H13.975" stroke="#1C1C1E" stroke-width="1.5" stroke-linecap="round" stroke-linejoin="round"/>
</svg>
