<svg width="67" height="67" viewBox="0 0 67 67" fill="none" xmlns="http://www.w3.org/2000/svg">
<path opacity="0.1" d="M33.5 0C14.9944 0 0 14.9944 0 33.5C0 52.0056 14.9944 67 33.5 67C52.0056 67 67 52.0056 67 33.5C67 14.9944 51.9971 0 33.5 0ZM33.5 56.3987C30.4553 56.3987 27.9873 53.9308 27.9873 50.8861C27.9873 47.8414 30.4553 45.3734 33.5 45.3734C36.5447 45.3734 39.0127 47.8414 39.0127 50.8861C39.0127 53.9308 36.5447 56.3987 33.5 56.3987ZM39.0127 36.4684C39.0127 39.513 36.5447 41.981 33.5 41.981C30.4553 41.981 27.9873 39.513 27.9873 36.4684V16.1139C27.9873 13.0692 30.4553 10.6013 33.5 10.6013C36.5447 10.6013 39.0127 13.0692 39.0127 16.1139V36.4684Z" fill="#1A823B"/>
</svg>
