<svg width="41" height="30" viewBox="0 0 41 30" fill="none" xmlns="http://www.w3.org/2000/svg">
<path opacity="0.3" d="M5.94797 6.32564C7.69475 6.32564 9.11079 4.90959 9.11079 3.16282C9.11079 1.41604 7.69475 0 5.94797 0C4.2012 0 2.78516 1.41604 2.78516 3.16282C2.78516 4.90959 4.2012 6.32564 5.94797 6.32564Z" fill="#1A823B"/>
<g opacity="0.3">
<path d="M37.5439 16.2299L31.9961 11.6826L23.1742 22.4455L28.722 26.9928L37.5439 16.2299Z" fill="#1A823B"/>
<path d="M22.7344 28.6298L23.1645 22.4434L28.7184 26.9852L22.7344 28.6298Z" fill="#1A823B"/>
<path d="M37.2618 9.45587L38.6805 10.6188C39.8155 11.5491 39.9832 13.2405 39.0529 14.3755L37.5371 16.2247L31.9893 11.6775L33.5051 9.82819C34.4354 8.6932 36.1268 8.52556 37.2618 9.45587Z" fill="#1A823B"/>
</g>
<path d="M32.8553 8.79222C32.0077 6.69211 29.9455 5.21191 27.5291 5.21191H7.84375" stroke="black" stroke-linecap="round" stroke-linejoin="round"/>
<path d="M19.8757 28.1622H6.74368C3.58086 28.1622 1 25.594 1 22.4185C1 19.2557 3.56821 16.6748 6.74368 16.6748H24.873" stroke="black" stroke-linecap="round" stroke-linejoin="round"/>
<path d="M35.0048 16.2328L29.457 11.6855L20.6351 22.4485L26.1829 26.9957L35.0048 16.2328Z" stroke="black" stroke-linecap="round" stroke-linejoin="round"/>
<path d="M20.2051 28.6308L20.6352 22.4443L26.1891 26.9861L20.2051 28.6308Z" stroke="black" stroke-linecap="round" stroke-linejoin="round"/>
<path d="M34.7286 9.4588L36.1473 10.6217C37.2823 11.552 37.45 13.2434 36.5197 14.3784L35.0039 16.2277L29.4561 11.6804L30.9719 9.83112C31.9022 8.69613 33.5936 8.52849 34.7286 9.4588Z" stroke="black" stroke-linecap="round" stroke-linejoin="round"/>
<path d="M4.05202 7.78177C5.71495 7.78177 7.06302 6.4337 7.06302 4.77077C7.06302 3.10784 5.71495 1.75977 4.05202 1.75977C2.38909 1.75977 1.04102 3.10784 1.04102 4.77077C1.04102 6.4337 2.38909 7.78177 4.05202 7.78177Z" stroke="black" stroke-linecap="round" stroke-linejoin="round"/>
</svg>
