<svg width="22" height="19" viewBox="0 0 22 19" fill="none" xmlns="http://www.w3.org/2000/svg">
<path d="M17.8728 16.1556H4.83401C2.90302 16.1556 1.33984 14.5924 1.33984 12.6615C1.33984 10.7305 2.90302 9.16729 4.83401 9.16729H17.505C19.436 9.16729 20.9991 7.60411 20.9991 5.67312C20.9991 3.74214 19.436 2.17896 17.505 2.17896H3.63864" stroke="#1A823B" stroke-linecap="square" stroke-linejoin="round"/>
<path d="M4.40856 2.18817C4.40856 2.86675 3.85845 3.41686 3.17987 3.41686C2.50128 3.41686 1.95117 2.86675 1.95117 2.18817C1.95117 1.50958 2.50128 0.959473 3.17987 0.959473C3.85845 0.959473 4.40856 1.50958 4.40856 2.18817Z" fill="#1A823B" stroke="#1A823B"/>
<mask id="path-3-inside-1_4940_739" fill="white">
<path d="M3.17926 0.919518C3.87809 0.919518 4.44819 1.48962 4.44819 2.18845C4.44819 2.88729 3.87809 3.45739 3.17926 3.45739C2.48042 3.45739 1.91032 2.88729 1.91032 2.18845C1.91032 1.48962 2.48042 0.919518 3.17926 0.919518ZM3.17926 0C1.97469 0 1 0.974689 1 2.18845C1 3.40222 1.97469 4.3769 3.18845 4.3769C4.40222 4.3769 5.3769 3.40222 5.3769 2.18845C5.3769 0.974689 4.38383 0 3.17926 0Z"/>
</mask>
<path d="M3.17926 0.919518C3.87809 0.919518 4.44819 1.48962 4.44819 2.18845C4.44819 2.88729 3.87809 3.45739 3.17926 3.45739C2.48042 3.45739 1.91032 2.88729 1.91032 2.18845C1.91032 1.48962 2.48042 0.919518 3.17926 0.919518ZM3.17926 0C1.97469 0 1 0.974689 1 2.18845C1 3.40222 1.97469 4.3769 3.18845 4.3769C4.40222 4.3769 5.3769 3.40222 5.3769 2.18845C5.3769 0.974689 4.38383 0 3.17926 0Z" fill="#1A823B"/>
<path d="M3.17926 1.91952C3.32581 1.91952 3.44819 2.0419 3.44819 2.18845H5.44819C5.44819 0.937334 4.43037 -0.0804824 3.17926 -0.0804824V1.91952ZM3.44819 2.18845C3.44819 2.335 3.32581 2.45739 3.17926 2.45739V4.45739C4.43037 4.45739 5.44819 3.43957 5.44819 2.18845H3.44819ZM3.17926 2.45739C3.03271 2.45739 2.91032 2.335 2.91032 2.18845H0.910323C0.910323 3.43957 1.92814 4.45739 3.17926 4.45739V2.45739ZM2.91032 2.18845C2.91032 2.0419 3.03271 1.91952 3.17926 1.91952V-0.0804824C1.92814 -0.0804824 0.910323 0.937334 0.910323 2.18845H2.91032ZM3.17926 -1C1.41966 -1 0 0.425151 0 2.18845H2C2 1.52423 2.52972 1 3.17926 1V-1ZM0 2.18845C0 3.9545 1.4224 5.3769 3.18845 5.3769V3.3769C2.52697 3.3769 2 2.84993 2 2.18845H0ZM3.18845 5.3769C4.9545 5.3769 6.3769 3.9545 6.3769 2.18845H4.3769C4.3769 2.84993 3.84993 3.3769 3.18845 3.3769V5.3769ZM6.3769 2.18845C6.3769 0.414235 4.92791 -1 3.17926 -1V1C3.83974 1 4.3769 1.53514 4.3769 2.18845H6.3769Z" fill="#1A823B" mask="url(#path-3-inside-1_4940_739)"/>
<path d="M20.0394 15.9806C20.0394 16.6592 19.4893 17.2093 18.8107 17.2093C18.1321 17.2093 17.582 16.6592 17.582 15.9806C17.582 15.3021 18.1321 14.752 18.8107 14.752C19.4893 14.752 20.0394 15.3021 20.0394 15.9806Z" fill="#1A823B" stroke="#1A823B"/>
<mask id="path-6-inside-2_4940_739" fill="white">
<path d="M18.8115 14.712C19.5103 14.712 20.0804 15.2821 20.0804 15.9809C20.0804 16.6798 19.5103 17.2499 18.8115 17.2499C18.1127 17.2499 17.5426 16.6798 17.5426 15.9809C17.5426 15.2821 18.1127 14.712 18.8115 14.712ZM18.8115 13.7925C17.6069 13.7925 16.623 14.7672 16.623 15.9809C16.623 17.1947 17.5977 18.1694 18.8115 18.1694C20.0253 18.1694 20.9999 17.1947 20.9999 15.9809C20.9999 14.7672 20.0253 13.7925 18.8115 13.7925Z"/>
</mask>
<path d="M18.8115 14.712C19.5103 14.712 20.0804 15.2821 20.0804 15.9809C20.0804 16.6798 19.5103 17.2499 18.8115 17.2499C18.1127 17.2499 17.5426 16.6798 17.5426 15.9809C17.5426 15.2821 18.1127 14.712 18.8115 14.712ZM18.8115 13.7925C17.6069 13.7925 16.623 14.7672 16.623 15.9809C16.623 17.1947 17.5977 18.1694 18.8115 18.1694C20.0253 18.1694 20.9999 17.1947 20.9999 15.9809C20.9999 14.7672 20.0253 13.7925 18.8115 13.7925Z" fill="#1A823B"/>
<path d="M18.8115 15.712C18.958 15.712 19.0804 15.8344 19.0804 15.9809H21.0804C21.0804 14.7298 20.0626 13.712 18.8115 13.712V15.712ZM19.0804 15.9809C19.0804 16.1275 18.958 16.2499 18.8115 16.2499V18.2499C20.0626 18.2499 21.0804 17.232 21.0804 15.9809H19.0804ZM18.8115 16.2499C18.665 16.2499 18.5426 16.1275 18.5426 15.9809H16.5426C16.5426 17.232 17.5604 18.2499 18.8115 18.2499V16.2499ZM18.5426 15.9809C18.5426 15.8344 18.6649 15.712 18.8115 15.712V13.712C17.5604 13.712 16.5426 14.7298 16.5426 15.9809H18.5426ZM18.8115 12.7925C17.0574 12.7925 15.623 14.2121 15.623 15.9809H17.623C17.623 15.3222 18.1565 14.7925 18.8115 14.7925V12.7925ZM15.623 15.9809C15.623 17.747 17.0454 19.1694 18.8115 19.1694V17.1694C18.15 17.1694 17.623 16.6424 17.623 15.9809H15.623ZM18.8115 19.1694C20.5775 19.1694 21.9999 17.747 21.9999 15.9809H19.9999C19.9999 16.6424 19.473 17.1694 18.8115 17.1694V19.1694ZM21.9999 15.9809C21.9999 14.2149 20.5775 12.7925 18.8115 12.7925V14.7925C19.473 14.7925 19.9999 15.3195 19.9999 15.9809H21.9999Z" fill="#1A823B" mask="url(#path-6-inside-2_4940_739)"/>
</svg>
