<svg width="258" height="125" viewBox="0 0 258 125" fill="none" xmlns="http://www.w3.org/2000/svg">
<ellipse opacity="0.3" cx="123" cy="101" rx="123" ry="24" fill="#1A823B"/>
<path d="M32.4219 101H231.422" stroke="#1A823B" stroke-width="2" stroke-linecap="round" stroke-dasharray="4 4"/>
<path d="M213.16 106.393C223.509 106.393 231.898 103.905 231.898 100.835C231.898 97.7649 223.509 95.2764 213.16 95.2764C202.811 95.2764 194.422 97.7649 194.422 100.835C194.422 103.905 202.811 106.393 213.16 106.393Z" fill="#007311" stroke="black" stroke-miterlimit="10"/>
<path d="M215.507 99.1765V3.29721C215.507 2.02699 214.48 1 213.21 1C211.94 1 210.913 2.02699 210.913 3.29721V99.1765C210.913 100.095 211.66 100.834 212.57 100.834H213.84C214.759 100.834 215.498 100.086 215.498 99.1765H215.507Z" fill="#EAEAEA" stroke="black" stroke-miterlimit="10"/>
<path d="M213.443 49.0096V5.11031C213.443 4.83104 213.731 4.65087 213.983 4.76798L255.369 23.9655C258.009 25.1906 258.009 28.9382 255.369 30.1544L213.983 49.3519C213.731 49.469 213.443 49.2888 213.443 49.0096Z" fill="#FF0000" stroke="black" stroke-miterlimit="10"/>
<path d="M31.738 106.393C42.0868 106.393 50.4761 103.905 50.4761 100.835C50.4761 97.7649 42.0868 95.2764 31.738 95.2764C21.3893 95.2764 13 97.7649 13 100.835C13 103.905 21.3893 106.393 31.738 106.393Z" fill="#007311" stroke="black" stroke-miterlimit="10"/>
<path d="M34.0851 99.1765V3.29721C34.0851 2.02699 33.0582 1 31.7879 1C30.5177 1 29.4907 2.02699 29.4907 3.29721V99.1765C29.4907 100.095 30.2384 100.834 31.1483 100.834H32.4185C33.3374 100.834 34.0761 100.086 34.0761 99.1765H34.0851Z" fill="#EAEAEA" stroke="black" stroke-miterlimit="10"/>
<path d="M32.021 49.0096V5.11031C32.021 4.83104 32.3093 4.65087 32.5615 4.76798L73.9473 23.9655C76.5869 25.1906 76.5869 28.9382 73.9473 30.1544L32.5615 49.3519C32.3093 49.469 32.021 49.2888 32.021 49.0096Z" fill="#FF0000" stroke="black" stroke-miterlimit="10"/>
</svg>
