<svg width="26" height="19" viewBox="0 0 26 19" fill="none" xmlns="http://www.w3.org/2000/svg">
<path d="M21.1714 17.57H6.99141C4.89141 17.57 3.19141 15.87 3.19141 13.77C3.19141 11.67 4.89141 9.97 6.99141 9.97H20.7714C22.8714 9.97 24.5714 8.27 24.5714 6.17C24.5714 4.07 22.8714 2.37 20.7714 2.37H3.19141" stroke="white" stroke-linecap="square" stroke-linejoin="round"/>
<path d="M3.18078 4.26C4.21908 4.26 5.06078 3.4183 5.06078 2.38C5.06078 1.3417 4.21908 0.5 3.18078 0.5C2.14249 0.5 1.30078 1.3417 1.30078 2.38C1.30078 3.4183 2.14249 4.26 3.18078 4.26Z" fill="white"/>
<path d="M3.18078 1C3.94078 1 4.56078 1.62 4.56078 2.38C4.56078 3.14 3.94078 3.76 3.18078 3.76C2.42078 3.76 1.80078 3.14 1.80078 2.38C1.80078 1.62 2.42078 1 3.18078 1ZM3.18078 0C1.87078 0 0.800781 1.06 0.800781 2.38C0.800781 3.7 1.86078 4.76 3.18078 4.76C4.50078 4.76 5.56078 3.7 5.56078 2.38C5.56078 1.06 4.50078 0 3.18078 0Z" fill="white"/>
<path d="M21.3516 18V12.11" stroke="white" stroke-width="0.83" stroke-linecap="round" stroke-linejoin="round"/>
<path d="M21.3516 15.64V12L24.8316 13.82L21.3516 15.64Z" fill="white" stroke="white" stroke-width="0.83" stroke-linecap="round" stroke-linejoin="round"/>
</svg>
