<svg width="73" height="71" viewBox="0 0 73 71" fill="none" xmlns="http://www.w3.org/2000/svg">
<path d="M9.78906 7.37256L1.71684 54.9952L20.8214 62.5777L42.4461 56.6034L62.1396 69.5178L70.2797 21.4945L49.6458 14.1284L28.972 14.4927L9.78906 7.37256Z" fill="#CAEAFA" stroke="black" stroke-width="2" stroke-miterlimit="10" stroke-linejoin="round"/>
<path d="M28.918 14.4202L20.7674 62.5052" stroke="black" stroke-miterlimit="10"/>
<path d="M42.4686 56.2901L49.5742 14.3699" stroke="black" stroke-miterlimit="10"/>
<path d="M11.0414 41.1964C18.4102 34.8226 23.6091 34.093 27.1283 34.8036C33.0595 36.0119 35.5174 41.5972 42.0665 41.8955C45.8486 42.0673 49.0371 40.3818 51.1844 38.8812" stroke="black" stroke-width="2" stroke-miterlimit="10" stroke-linecap="round" stroke-linejoin="round"/>
<path d="M47.2111 9.57254C41.2666 13.3909 39.5458 21.3185 43.3642 27.263L50.864 38.9592C50.864 38.9592 51.0013 39.039 51.0656 38.9934L62.0008 30.422C74.3834 19.9846 61.1952 1.25404 47.1928 9.56943L47.2111 9.57254ZM53.6698 23.1847C51.3242 22.7872 49.7598 20.5614 50.1542 18.2341C50.5487 15.9069 52.7776 14.3241 55.1048 14.7186C57.4321 15.1131 59.0149 17.3419 58.6204 19.6692C58.2259 21.9965 55.9971 23.5792 53.6698 23.1847Z" fill="#FF0000" stroke="black" stroke-width="2" stroke-linecap="round" stroke-linejoin="round"/>
</svg>
