<svg width="22" height="22" viewBox="0 0 22 22" fill="none" xmlns="http://www.w3.org/2000/svg">
<path d="M8.26375 1C5.21721 1.36961 2.84767 3.90212 2.84767 6.96852V12.3073C2.72073 12.2389 2.59379 12.1978 2.43865 12.1978C1.6488 12.1978 1 12.8275 1 13.5941V18.0294C1 18.4812 1.38082 18.8508 1.84626 18.8508H2.43865C2.6079 18.8508 2.76305 18.796 2.88999 18.7139C3.12976 20.0144 4.28632 21 5.68265 21H16.3173C17.7137 21 18.8843 20.0144 19.11 18.7139C19.237 18.796 19.3921 18.8508 19.5614 18.8508H20.1537C20.6192 18.8508 21 18.4812 21 18.0294V13.5941C21 12.8275 20.3512 12.1978 19.5614 12.1978C19.4062 12.1978 19.2793 12.2389 19.1523 12.3073V6.96852C19.1523 3.90212 16.7828 1.3833 13.7362 1.01369H8.24965L8.26375 1ZM16.8674 10.8973V14.2101C16.8674 14.5387 16.5853 14.8125 16.2468 14.8125C15.9083 14.8125 15.6262 14.5387 15.6262 14.2101V11.1985H5.23131V9.99384H16.8674V10.8973Z" stroke="#B9B9B9" stroke-linecap="round" stroke-linejoin="round"/>
<path d="M16.8666 14.2104V10.8976V9.99414H11.0485H5.23047V11.1988H15.6254V14.2104C15.6254 14.539 15.9075 14.8128 16.246 14.8128C16.5845 14.8128 16.8666 14.539 16.8666 14.2104Z" fill="#B9B9B9" stroke="#B9B9B9" stroke-linecap="round" stroke-linejoin="round"/>
</svg>
