<svg width="23" height="22" viewBox="0 0 23 22" fill="none" xmlns="http://www.w3.org/2000/svg">
<path d="M1.28558 13.96C1.28558 14.1632 1.12092 14.3278 0.917791 14.3278C0.714665 14.3278 0.55 14.1632 0.55 13.96C0.55 13.7569 0.714665 13.5922 0.917791 13.5922C1.12092 13.5922 1.28558 13.7569 1.28558 13.96Z" fill="#FF0000" stroke="#FF0000" stroke-width="1.1" stroke-linecap="round" stroke-linejoin="round"/>
<path d="M3.24261 4.98493C3.24261 5.18806 3.07795 5.35272 2.87482 5.35272C2.6717 5.35272 2.50703 5.18806 2.50703 4.98493C2.50703 4.7818 2.6717 4.61714 2.87482 4.61714C3.07795 4.61714 3.24261 4.7818 3.24261 4.98493Z" fill="#FF0000" stroke="#FF0000" stroke-width="1.1" stroke-linecap="round" stroke-linejoin="round"/>
<path d="M11.475 0.917791C11.475 1.12092 11.3104 1.28558 11.1072 1.28558C10.9041 1.28558 10.7395 1.12092 10.7395 0.917791C10.7395 0.714665 10.9041 0.55 11.1072 0.55C11.3104 0.55 11.475 0.714666 11.475 0.917791Z" fill="#FF0000" stroke="#FF0000" stroke-width="1.1" stroke-linecap="round" stroke-linejoin="round"/>
<path d="M19.7895 4.82282C19.7895 5.02595 19.6248 5.19061 19.4217 5.19061C19.2186 5.19061 19.0539 5.02595 19.0539 4.82282C19.0539 4.6197 19.2186 4.45503 19.4217 4.45503C19.6248 4.45503 19.7895 4.61969 19.7895 4.82282Z" fill="#FF0000" stroke="#FF0000" stroke-width="1.1" stroke-linecap="round" stroke-linejoin="round"/>
<path d="M21.9223 13.7537C21.9223 13.9569 21.7576 14.1215 21.5545 14.1215C21.3514 14.1215 21.1867 13.9569 21.1867 13.7537C21.1867 13.5506 21.3514 13.3859 21.5545 13.3859C21.7576 13.3859 21.9223 13.5506 21.9223 13.7537Z" fill="#FF0000" stroke="#FF0000" stroke-width="1.1" stroke-linecap="round" stroke-linejoin="round"/>
<path d="M16.2661 20.992C16.2661 21.1951 16.1014 21.3598 15.8983 21.3598C15.6951 21.3598 15.5305 21.1951 15.5305 20.992C15.5305 20.7889 15.6951 20.6242 15.8983 20.6242C16.1014 20.6242 16.2661 20.7889 16.2661 20.992Z" fill="#FF0000" stroke="#FF0000" stroke-width="1.1" stroke-linecap="round" stroke-linejoin="round"/>
<path d="M7.08441 21.0826C7.08441 21.2857 6.91975 21.4504 6.71662 21.4504C6.51349 21.4504 6.34883 21.2857 6.34883 21.0826C6.34883 20.8795 6.51349 20.7148 6.71662 20.7148C6.91975 20.7148 7.08441 20.8795 7.08441 21.0826Z" fill="#FF0000" stroke="#FF0000" stroke-width="1.1" stroke-linecap="round" stroke-linejoin="round"/>
<path d="M11.2378 18.4235C15.3375 18.4235 18.6611 15.1 18.6611 11.0002C18.6611 6.90043 15.3375 3.5769 11.2378 3.5769C7.13798 3.5769 3.81445 6.90043 3.81445 11.0002C3.81445 15.1 7.13798 18.4235 11.2378 18.4235Z" fill="#FF0000"/>
</svg>
