<svg width="44" height="44" viewBox="0 0 44 44" fill="none" xmlns="http://www.w3.org/2000/svg">
<path d="M22 43C33.598 43 43 33.598 43 22C43 10.402 33.598 1 22 1C10.402 1 1 10.402 1 22C1 33.598 10.402 43 22 43Z" fill="#1A823B"/>
<mask id="mask0_5401_5870" style="mask-type:luminance" maskUnits="userSpaceOnUse" x="1" y="1" width="42" height="42">
<path d="M22 43C33.598 43 43 33.598 43 22C43 10.402 33.598 1 22 1C10.402 1 1 10.402 1 22C1 33.598 10.402 43 22 43Z" fill="white"/>
</mask>
<g mask="url(#mask0_5401_5870)">
<path d="M14.1802 16.0141H17.5555V25.8497C16.7613 25.0708 15.2187 23.3297 14.4857 20.6111C13.9511 18.6868 14.0427 17.0221 14.1802 15.9988V16.0141Z" fill="#2B323E" stroke="black" stroke-width="0.8" stroke-linecap="round" stroke-linejoin="round"/>
<path d="M17.5679 16.0132V19.0983C17.2319 18.8386 16.789 18.7165 16.3003 18.8234C15.7199 18.9455 15.2465 19.419 15.1395 19.9994C14.941 20.9921 15.6894 21.8474 16.6515 21.8474C17.0028 21.8474 17.3235 21.7252 17.5679 21.5266V32.5077H25.2501V27.315C27.8312 27.315 29.9235 25.2226 29.9235 22.6415V16.0132H17.5679Z" fill="#F9D3D2" stroke="black" stroke-width="0.8" stroke-linecap="round" stroke-linejoin="round"/>
<path d="M29.546 14.7755C29.4696 10.6061 26.0638 7.24609 21.8638 7.24609C17.6638 7.24609 14.2733 10.6061 14.1816 14.7755V15.9974H29.546V14.7755Z" fill="#1A823B" stroke="black" stroke-width="0.8" stroke-linecap="round" stroke-linejoin="round"/>
<path d="M17.5684 16.0127H29.924C31.6193 14.8978 31.7873 14.2258 31.7109 13.8592C31.4665 12.6374 28.1218 12.1945 25.8767 12.3167C25.3575 12.3472 23.7844 12.4694 21.8753 13.233C19.8287 14.0578 18.4084 15.2185 17.5684 15.9974V16.0127Z" fill="#1A823B" stroke="black" stroke-width="0.8" stroke-linecap="round" stroke-linejoin="round"/>
<path d="M22.9472 20.9158C23.369 20.9158 23.7109 20.4371 23.7109 19.8467C23.7109 19.2562 23.369 18.7776 22.9472 18.7776C22.5255 18.7776 22.1836 19.2562 22.1836 19.8467C22.1836 20.4371 22.5255 20.9158 22.9472 20.9158Z" fill="black" stroke="black" stroke-width="0.8" stroke-linecap="round" stroke-linejoin="round"/>
<path d="M26.9336 20.9158C27.3553 20.9158 27.6972 20.4371 27.6972 19.8467C27.6972 19.2562 27.3553 18.7776 26.9336 18.7776C26.5118 18.7776 26.1699 19.2562 26.1699 19.8467C26.1699 20.4371 26.5118 20.9158 26.9336 20.9158Z" fill="black" stroke="black" stroke-width="0.8" stroke-linecap="round" stroke-linejoin="round"/>
<path d="M21.5547 18.1497C21.8296 17.829 22.3031 17.6457 22.7765 17.6915C23.3569 17.7374 23.6623 18.1039 23.6929 18.1497" stroke="black" stroke-width="0.8" stroke-linecap="round" stroke-linejoin="round"/>
<path d="M25.8613 18.1497C26.1362 17.829 26.6097 17.6457 27.0831 17.6915C27.6635 17.7374 27.969 18.1039 27.9995 18.1497" stroke="black" stroke-width="0.8" stroke-linecap="round" stroke-linejoin="round"/>
<path d="M25.0838 23.0081C25.1602 23.0386 25.2518 23.0692 25.3587 23.0692C25.8322 23.0997 26.2293 22.7332 26.2598 22.275C26.2904 21.8168 25.9238 21.4044 25.4656 21.3739C25.2976 21.3739 25.1296 21.4044 24.9922 21.4808" stroke="black" stroke-width="0.8" stroke-linecap="round" stroke-linejoin="round"/>
<path d="M22.7949 23.0699C22.9171 23.2838 23.4516 24.2459 24.6429 24.6125C25.4829 24.8721 26.2007 24.7041 26.4909 24.6125" stroke="black" stroke-width="0.8" stroke-linecap="round" stroke-linejoin="round"/>
<path d="M20.4871 22.7638C21.0775 22.7638 21.5561 22.422 21.5561 22.0002C21.5561 21.5785 21.0775 21.2366 20.4871 21.2366C19.8966 21.2366 19.418 21.5785 19.418 22.0002C19.418 22.422 19.8966 22.7638 20.4871 22.7638Z" fill="#FF0000" stroke="black" stroke-width="0.8" stroke-linecap="round" stroke-linejoin="round"/>
<path d="M29.1035 31.5131H27.5762V28.8251C27.5762 28.1684 26.8889 27.7255 26.278 28.0004L21.9558 30.0164L17.0991 27.9088C16.5035 27.6491 15.8315 28.092 15.8315 28.7488V31.5131H15.0068C10.7762 31.5131 7.33984 34.9495 7.33984 39.18V42.8455H36.7704V39.18C36.7704 34.9495 33.334 31.5131 29.1035 31.5131Z" fill="white" stroke="black" stroke-width="0.8" stroke-linecap="round" stroke-linejoin="round"/>
<path d="M21.957 30.0175V34.0953" stroke="black" stroke-width="0.8" stroke-linecap="round" stroke-linejoin="round"/>
</g>
<path d="M22 43C33.598 43 43 33.598 43 22C43 10.402 33.598 1 22 1C10.402 1 1 10.402 1 22C1 33.598 10.402 43 22 43Z" stroke="#1A823B" stroke-width="0.8" stroke-linecap="round" stroke-linejoin="round"/>
</svg>
