<svg width="43" height="25" viewBox="0 0 43 25" fill="none" xmlns="http://www.w3.org/2000/svg">
<path d="M3.73969 15.5784H21.0319C23.4127 15.0204 25.1485 13.0926 25.3369 10.9329C25.5724 8.21511 23.3366 5.49009 20.1441 5.19295C19.0896 2.10919 16.2161 0.0219441 13.0381 0.000201977C9.62094 -0.0251639 6.54806 2.34111 5.65663 5.74013C3.14179 5.50097 0.844368 7.0519 0.18848 9.29497C-0.558 11.8388 0.971196 14.7305 3.74332 15.5821L3.73969 15.5784Z" fill="url(#paint0_linear_5417_8187)"/>
<path d="M13.5717 25H36.4916C39.6478 24.2572 41.9488 21.7061 42.1989 18.8397C42.5105 15.2378 39.5463 11.625 35.3139 11.23C33.9151 7.14247 30.1066 4.37397 25.8923 4.34498C21.3626 4.31237 17.2896 7.44686 16.1083 11.9547C12.7745 11.6395 9.7306 13.6941 8.86091 16.6655C7.87165 20.0392 9.90091 23.8694 13.5717 25Z" fill="url(#paint1_linear_5417_8187)"/>
<defs>
<linearGradient id="paint0_linear_5417_8187" x1="4.83043" y1="7.78751" x2="22.1191" y2="7.78751" gradientUnits="userSpaceOnUse">
<stop stop-color="white"/>
<stop offset="1" stop-color="#D9DBE7"/>
</linearGradient>
<linearGradient id="paint1_linear_5417_8187" x1="15.0139" y1="14.6725" x2="37.9302" y2="14.6725" gradientUnits="userSpaceOnUse">
<stop stop-color="white"/>
<stop offset="1" stop-color="#D9DBE7"/>
</linearGradient>
</defs>
</svg>
