<svg width="29" height="29" viewBox="0 0 29 29" fill="none" xmlns="http://www.w3.org/2000/svg">
<path d="M29.0045 14.5C29.0045 16.2545 25.6652 17.3348 25.0312 18.8616C24.3973 20.3884 25.9464 23.5625 24.7545 24.7545C23.5625 25.9464 20.4464 24.375 18.8616 25.0312C17.2768 25.6875 16.2545 29 14.5 29C12.7455 29 11.6652 25.6607 10.1384 25.0268C8.61161 24.3929 5.4375 25.942 4.24554 24.75C3.05357 23.558 4.625 20.442 3.96875 18.8571C3.33482 17.3304 0 16.25 0 14.4955C0 12.7411 3.33929 11.6607 3.97321 10.1339C4.60714 8.60714 3.05804 5.43304 4.25 4.24107C5.44196 3.04911 8.55804 4.62054 10.1429 3.96429C11.7277 3.30804 12.75 0 14.5045 0C16.2589 0 17.3393 3.33929 18.8661 3.97321C20.3929 4.60714 23.567 3.05804 24.7589 4.25C25.9509 5.44196 24.3795 8.55803 25.0357 10.1429C25.692 11.7277 29.0045 12.75 29.0045 14.5045V14.5Z" fill="url(#paint0_linear_5417_8179)"/>
<path d="M14.5045 22.5357C18.9425 22.5357 22.5402 18.938 22.5402 14.4999C22.5402 10.0619 18.9425 6.46423 14.5045 6.46423C10.0665 6.46423 6.46875 10.0619 6.46875 14.4999C6.46875 18.938 10.0665 22.5357 14.5045 22.5357Z" fill="url(#paint1_linear_5417_8179)"/>
<defs>
<linearGradient id="paint0_linear_5417_8179" x1="7.83036" y1="10.8795" x2="24.558" y2="19.9554" gradientUnits="userSpaceOnUse">
<stop stop-color="#FCD272"/>
<stop offset="1" stop-color="#FDBB72"/>
</linearGradient>
<linearGradient id="paint1_linear_5417_8179" x1="10.6607" y1="12.4151" x2="20.2946" y2="17.6428" gradientUnits="userSpaceOnUse">
<stop stop-color="#FDF6C1"/>
<stop offset="1" stop-color="#FFD257"/>
</linearGradient>
</defs>
</svg>
