<svg width="32" height="30" viewBox="0 0 32 30" fill="none" xmlns="http://www.w3.org/2000/svg">
<path d="M21.182 10.5927C21.182 11.8739 18.7434 12.6629 18.2804 13.7779C17.8174 14.893 18.9488 17.211 18.0783 18.0815C17.2078 18.952 14.9321 17.8044 13.7747 18.2837C12.6173 18.7629 11.8707 21.182 10.5894 21.182C9.3081 21.182 8.51912 18.7434 7.4041 18.2804C6.28908 17.8174 3.97103 18.9488 3.10053 18.0783C2.23004 17.2078 3.37765 14.9321 2.89839 13.7747C2.43543 12.6597 0 11.8707 0 10.5894C0 9.3081 2.43869 8.51911 2.90165 7.4041C3.36461 6.28908 2.23329 3.97102 3.10379 3.10053C3.97428 2.23003 6.24996 3.37765 7.40736 2.89839C8.56476 2.41913 9.31136 0 10.5927 0C11.8739 0 12.6629 2.43869 13.7779 2.90165C14.893 3.36461 17.211 2.23329 18.0815 3.10379C18.952 3.97428 17.8044 6.24996 18.2837 7.40736C18.7629 8.56476 21.182 9.31136 21.182 10.5927Z" fill="url(#paint0_linear_5417_8182)"/>
<path d="M10.5931 16.4611C13.8342 16.4611 16.4616 13.8337 16.4616 10.5926C16.4616 7.35154 13.8342 4.72412 10.5931 4.72412C7.35203 4.72412 4.72461 7.35154 4.72461 10.5926C4.72461 13.8337 7.35203 16.4611 10.5931 16.4611Z" fill="url(#paint1_linear_5417_8182)"/>
<path d="M6.22269 29.3612H26.844C29.6837 28.6928 31.7539 26.3976 31.9789 23.8187C32.2593 20.578 29.5924 17.3275 25.7844 16.9721C24.5259 13.2945 21.0993 10.8037 17.3076 10.7776C13.2323 10.7482 9.56774 13.5684 8.50488 17.6242C5.50543 17.3405 2.76679 19.1891 1.98432 21.8625C1.09427 24.8978 2.92002 28.344 6.22269 29.3612Z" fill="url(#paint2_linear_5417_8182)"/>
<defs>
<linearGradient id="paint0_linear_5417_8182" x1="5.71853" y1="7.94857" x2="17.9348" y2="14.5767" gradientUnits="userSpaceOnUse">
<stop stop-color="#FCD272"/>
<stop offset="1" stop-color="#FDBB72"/>
</linearGradient>
<linearGradient id="paint1_linear_5417_8182" x1="7.78601" y1="9.07008" x2="14.8217" y2="12.8879" gradientUnits="userSpaceOnUse">
<stop stop-color="#FDF6C1"/>
<stop offset="1" stop-color="#FFD257"/>
</linearGradient>
<linearGradient id="paint2_linear_5417_8182" x1="7.52028" y1="20.0694" x2="28.1383" y2="20.0694" gradientUnits="userSpaceOnUse">
<stop stop-color="white"/>
<stop offset="1" stop-color="#D9DBE7"/>
</linearGradient>
</defs>
</svg>
